<svg width="1920" height="126" viewBox="0 0 1920 126" fill="none" xmlns="http://www.w3.org/2000/svg">
<line x1="807" y1="63.5" x2="6.14391e-08" y2="63.5" stroke="#EEBF3A"/>
<line x1="807" y1="63.5" x2="6.14391e-08" y2="63.5" stroke="#EEBF3A"/>
<line x1="807" y1="63.5" x2="6.14391e-08" y2="63.5" stroke="#EEBF3A"/>
<line x1="1920" y1="63.5" x2="1113" y2="63.5" stroke="#EEBF3A"/>
<line x1="1920" y1="63.5" x2="1113" y2="63.5" stroke="#EEBF3A"/>
<line x1="1920" y1="63.5" x2="1113" y2="63.5" stroke="#EEBF3A"/>
<mask id="path-3-inside-1" fill="white">
<path fill-rule="evenodd" clip-rule="evenodd" d="M936.37 13H915.956V31.967H897V52.3932H915.956V71.3604H936.37V52.3932H955.326V31.967H936.37V13Z"/>
</mask>
<path d="M915.956 13V9H911.956V13H915.956ZM936.37 13H940.37V9H936.37V13ZM915.956 31.967V35.967H919.956V31.967H915.956ZM897 31.967V27.967H893V31.967H897ZM897 52.3932H893V56.3932H897V52.3932ZM915.956 52.3932H919.956V48.3932H915.956V52.3932ZM915.956 71.3604H911.956V75.3604H915.956V71.3604ZM936.37 71.3604V75.3604H940.37V71.3604H936.37ZM936.37 52.3932V48.3932H932.37V52.3932H936.37ZM955.326 52.3932V56.3932H959.326V52.3932H955.326ZM955.326 31.967H959.326V27.967H955.326V31.967ZM936.37 31.967H932.37V35.967H936.37V31.967ZM915.956 17H936.37V9H915.956V17ZM919.956 31.967V13H911.956V31.967H919.956ZM897 35.967H915.956V27.967H897V35.967ZM901 52.3932V31.967H893V52.3932H901ZM915.956 48.3932H897V56.3932H915.956V48.3932ZM919.956 71.3604V52.3932H911.956V71.3604H919.956ZM936.37 67.3604H915.956V75.3604H936.37V67.3604ZM932.37 52.3932V71.3604H940.37V52.3932H932.37ZM955.326 48.3932H936.37V56.3932H955.326V48.3932ZM951.326 31.967V52.3932H959.326V31.967H951.326ZM936.37 35.967H955.326V27.967H936.37V35.967ZM932.37 13V31.967H940.37V13H932.37Z" fill="#FFC41E" mask="url(#path-3-inside-1)"/>
<path d="M956.737 64.9967L982.45 73.9223V110.333C982.45 111.04 982.161 111.719 981.647 112.219C981.132 112.719 980.434 113 979.706 113H968.731C968.004 113 967.306 112.719 966.791 112.219C966.276 111.719 965.987 111.04 965.987 110.333V91.6652H938.549V110.333C938.549 111.04 938.26 111.719 937.746 112.219C937.231 112.719 936.533 113 935.805 113H924.83C924.102 113 923.405 112.719 922.89 112.219C922.375 111.719 922.086 111.04 922.086 110.333V74.679C915.714 72.4705 911.111 66.6068 911.111 59.663C911.111 58.2484 911.689 56.8918 912.718 55.8915C913.748 54.8912 915.143 54.3293 916.599 54.3293C918.054 54.3293 919.45 54.8912 920.479 55.8915C921.508 56.8918 922.086 58.2484 922.086 59.663C922.089 61.0768 922.668 62.4319 923.697 63.4316C924.725 64.4312 926.119 64.994 927.574 64.9967H956.737ZM998.913 46.3287V51.6624C998.913 54.4916 997.757 57.2049 995.699 59.2054C993.64 61.206 990.849 62.3298 987.938 62.3298H982.45V68.2602L960.5 60.6414V35.6614C960.5 33.2862 963.453 32.0961 965.183 33.7762L969.861 38.3282H979.058C980.929 38.3282 983.131 39.6483 983.966 41.2767L985.194 43.6619H996.169C996.897 43.6619 997.595 43.9429 998.11 44.443C998.624 44.9431 998.913 45.6215 998.913 46.3287ZM979.706 46.3287C979.706 45.8013 979.546 45.2857 979.244 44.8471C978.943 44.4086 978.514 44.0667 978.013 43.8649C977.511 43.6631 976.96 43.6102 976.427 43.7131C975.895 43.816 975.406 44.07 975.023 44.443C974.639 44.816 974.377 45.2912 974.272 45.8085C974.166 46.3258 974.22 46.862 974.428 47.3493C974.635 47.8366 974.987 48.2531 975.438 48.5462C975.89 48.8392 976.42 48.9956 976.963 48.9956C977.69 48.9956 978.388 48.7146 978.903 48.2145C979.417 47.7144 979.706 47.036 979.706 46.3287Z" fill="#242424"/>
<path d="M1024 96.5273C1024 105.705 1016.47 113 1006.99 113H992.407C982.929 113 975.395 105.705 975.395 96.5273V89.4675H1024V96.5273Z" fill="#FFC41E"/>
</svg>
