<svg width="93" height="67" viewBox="0 0 93 67" fill="none" xmlns="http://www.w3.org/2000/svg">
<path fill-rule="evenodd" clip-rule="evenodd" d="M36.5615 5.2763C36.5615 3.87694 37.1168 2.53489 38.1051 1.54539C39.0934 0.555894 40.4339 0 41.8316 0L73.4522 0C74.8499 0 76.1904 0.555894 77.1787 1.54539C78.167 2.53489 78.7223 3.87694 78.7223 5.2763V18.4671H36.5615V5.2763ZM66.8646 7.91445C66.5151 7.91445 66.18 8.05343 65.9329 8.3008C65.6859 8.54818 65.5471 8.88369 65.5471 9.23353V11.8717C65.5471 12.2215 65.6859 12.557 65.9329 12.8044C66.18 13.0518 66.5151 13.1908 66.8646 13.1908L72.1347 13.1908C72.4841 13.1908 72.8192 13.0518 73.0663 12.8044C73.3134 12.557 73.4522 12.2215 73.4522 11.8717V9.23353C73.4522 8.88369 73.3134 8.54818 73.0663 8.3008C72.8192 8.05343 72.4841 7.91445 72.1347 7.91445H66.8646Z" fill="#FFC41E"/>
<path d="M36.5615 23.7434V26.3816C36.5615 27.7809 37.1168 29.123 38.1051 30.1125C39.0934 31.102 40.4339 31.6579 41.8316 31.6579H73.4522C74.8499 31.6579 76.1904 31.102 77.1787 30.1125C78.167 29.123 78.7223 27.7809 78.7223 26.3816V23.7434H36.5615Z" fill="#FFC41E"/>
<mask id="path-3-inside-1" fill="white">
<rect y="24.6338" width="14.3347" height="41.3662" rx="2"/>
</mask>
<rect y="24.6338" width="14.3347" height="41.3662" rx="2" stroke="#242424" stroke-width="8" mask="url(#path-3-inside-1)"/>
<path d="M18.8538 31.6577V59.0945C25.1779 59.0945 27.1238 60.3778 33.61 60.7829C55.7081 67.7252 60.3714 65.3289 71.1273 59.0945C75.1064 56.7881 81.5726 51.7898 86.0491 48.1198C92.0591 42.1765 91.4546 40.6063 90.1055 39.2556C84.203 33.3461 77.8788 47.2756 66.0738 48.1198C56.984 48.7698 41.6206 47.2756 37.8261 47.2756" stroke="#242424" stroke-width="4"/>
<path d="M17.1675 31.6577C20.8214 31.3763 28.5948 30.3246 31.9237 31.6577C36.1398 33.3462 37.8911 37.0438 40.289 37.8464C45.7604 39.6777 54.7044 39.372 58.0634 39.6777C62.7011 40.0998 70.29 40.0998 69.8684 46.4313C69.6024 50.4269 47.1016 47.2755 38.2479 47.2755" stroke="#242424" stroke-width="4"/>
</svg>
