<svg width="65" height="87" viewBox="0 0 65 87" fill="none" xmlns="http://www.w3.org/2000/svg">
<path d="M2 54.3465V24.0196C2 22.5572 2.57293 21.1547 3.59275 20.1206C4.61257 19.0866 5.99574 18.5056 7.43798 18.5056V18.5056C8.88023 18.5056 10.2634 19.0866 11.2832 20.1206C12.303 21.1547 12.876 22.5572 12.876 24.0196V43.3186" stroke="black" stroke-width="4" stroke-linecap="round" stroke-linejoin="round"/>
<path d="M12.876 43.5001V13.1732C12.876 11.7108 13.4738 10.3083 14.538 9.27419C15.6021 8.24012 17.0454 7.65918 18.5504 7.65918C20.0553 7.65918 21.4987 8.24012 22.5628 9.27419C23.627 10.3083 24.2248 11.7108 24.2248 13.1732V40.7431" stroke="black" stroke-width="4" stroke-linecap="round" stroke-linejoin="round"/>
<path d="M35.1008 40.8122V15.9708C35.1008 14.5168 35.6987 13.1224 36.7628 12.0942C37.827 11.0661 39.2703 10.4885 40.7752 10.4885V10.4885C42.2802 10.4885 43.7235 11.0661 44.7877 12.0942C45.8518 13.1224 46.4497 14.5168 46.4497 15.9708V54.3465" stroke="black" stroke-width="4" stroke-linecap="round" stroke-linejoin="round"/>
<path d="M24.2246 40.6705V7.52435C24.2246 6.0592 24.7975 4.65406 25.8174 3.61804C26.8372 2.58203 28.2204 2 29.6626 2C31.1048 2 32.488 2.58203 33.5078 3.61804C34.5276 4.65406 35.1006 6.0592 35.1006 7.52435V40.6705" stroke="black" stroke-width="4" stroke-linecap="round" stroke-linejoin="round"/>
<path d="M2 54.4721C2 74.8355 13.0896 84.9999 28.3379 84.9999C43.5862 84.9999 49.7739 78.1311 53.2896 69.736L62.423 44.7587C63.577 41.6278 63.0537 38.7242 60.3662 37.1961C57.677 35.6662 54.1439 36.4537 52.6884 39.222L46.3586 54.4721" stroke="black" stroke-width="4" stroke-linecap="round" stroke-linejoin="round"/>
<path fill-rule="evenodd" clip-rule="evenodd" d="M31.3461 57.139C31.4944 57.161 31.6442 57.1721 31.7941 57.1721C32.8932 57.1721 33.9611 56.592 34.8033 55.5382C35.5528 54.6002 36.0737 53.3375 36.2718 51.9809C36.7404 48.754 35.3129 45.966 33.022 45.6286C32.8737 45.6066 32.724 45.5955 32.574 45.5955C31.4763 45.5969 30.4063 46.1763 29.5655 47.228C28.8153 48.1653 28.2916 49.4294 28.0963 50.7881C27.6277 54.0151 29.0552 56.803 31.3461 57.139ZM22.8085 57.1722C21.7101 57.1722 20.6414 56.592 19.7993 55.5382C19.0491 54.6002 18.5254 53.3375 18.33 51.9824C17.8615 48.754 19.289 45.9661 21.5799 45.6301C21.7282 45.608 21.8779 45.5969 22.0279 45.5969C23.1255 45.5969 24.1956 46.1764 25.0364 47.228C25.7866 48.1654 26.3103 49.4295 26.5063 50.7867C26.9748 54.0151 25.5474 56.803 23.2565 57.139C23.1082 57.1611 22.9584 57.1722 22.8085 57.1722ZM43.8891 55.1077C43.4963 54.1767 42.8438 53.5055 42.0016 53.1674L41.9903 53.1632C41.607 53.0134 41.1989 52.9368 40.7872 52.9373H40.7419C38.8141 52.9662 36.8459 54.6002 35.8452 57.0035C35.1113 58.7609 35.027 60.6511 35.6201 62.0599C36.0122 62.9915 36.6661 63.6628 37.5118 64.0008L37.521 64.0044C37.9044 64.154 38.3125 64.2306 38.7242 64.2302C40.6704 64.2302 42.6591 62.5963 43.6782 60.1612C44.4029 58.4059 44.4829 56.5172 43.8891 55.1077ZM36.1864 65.4731C35.0746 64.8068 34.0236 64.1766 33.3371 63.0444C31.4433 59.9106 30.2996 58.0191 27.301 58.0191C24.3024 58.0191 23.1559 59.9106 21.2578 63.0444C20.5706 64.1768 19.519 64.8076 18.4049 65.476L18.4014 65.4781L18.4013 65.4781C17.1225 66.2446 15.8012 67.0365 15.2308 68.5949C15.0091 69.1567 14.8974 69.7557 14.9017 70.3594C14.9017 72.8968 16.8834 74.9613 19.3179 74.9613C20.5741 74.9613 21.911 74.5272 23.3257 74.0678C24.686 73.6259 26.0922 73.1693 27.3081 73.1693C28.5239 73.1693 29.9266 73.6259 31.2819 74.0678L31.3201 74.0801C32.7178 74.5322 34.0357 74.9585 35.2841 74.9585C37.7151 74.9585 39.6932 72.894 39.6932 70.3566C39.6952 69.7524 39.5811 69.1534 39.357 68.5921C38.7867 67.0325 37.465 66.2399 36.1871 65.4735L36.1864 65.4731ZM17.0907 64.0008L17.0808 64.0044C16.6982 64.1539 16.2908 64.2306 15.8798 64.2302C13.9357 64.2302 11.9477 62.5956 10.9335 60.1634C10.2011 58.4059 10.1175 56.5179 10.7106 55.1062C11.102 54.1753 11.7552 53.5019 12.5974 53.1667L12.6073 53.1632C12.9906 53.0133 13.3987 52.9367 13.8104 52.9373C15.7545 52.9373 17.7425 54.5719 18.7567 57.0042C19.4892 58.7616 19.5727 60.6497 18.9796 62.0613C18.5883 62.9922 17.935 63.6628 17.0907 64.0008Z" fill="#FFC41E"/>
</svg>
