<svg width="1920" height="126" viewBox="0 0 1920 126" fill="none" xmlns="http://www.w3.org/2000/svg">
<path d="M946.047 34.0604L968.719 41.8854V73.8066C968.719 74.4267 968.464 75.0214 968.01 75.4599C967.556 75.8983 966.941 76.1447 966.299 76.1447H956.622C955.98 76.1447 955.365 75.8983 954.911 75.4599C954.458 75.0214 954.203 74.4267 954.203 73.8066V57.4405H930.01V73.8066C930.01 74.4267 929.755 75.0214 929.301 75.4599C928.847 75.8983 928.232 76.1447 927.59 76.1447H917.913C917.271 76.1447 916.656 75.8983 916.202 75.4599C915.749 75.0214 915.494 74.4267 915.494 73.8066V42.5488C909.875 40.6127 905.816 35.4719 905.816 29.3843C905.816 28.1442 906.326 26.9548 907.234 26.0779C908.141 25.201 909.372 24.7083 910.655 24.7083C911.938 24.7083 913.169 25.201 914.076 26.0779C914.984 26.9548 915.494 28.1442 915.494 29.3843C915.496 30.6238 916.007 31.8118 916.914 32.6882C917.82 33.5647 919.05 34.0581 920.332 34.0604H946.047ZM983.234 17.6943V22.3703C983.234 24.8506 982.215 27.2293 980.4 28.9832C978.585 30.737 976.124 31.7224 973.557 31.7224H968.719V36.9215L949.364 30.2421V8.34219C949.364 6.2599 951.968 5.21656 953.493 6.68951L957.618 10.6802H965.728C967.377 10.6802 969.319 11.8375 970.055 13.2652L971.138 15.3562H980.815C981.457 15.3562 982.072 15.6026 982.526 16.041C982.98 16.4795 983.234 17.0742 983.234 17.6943ZM966.299 17.6943C966.299 17.2318 966.157 16.7798 965.891 16.3953C965.626 16.0108 965.248 15.7112 964.806 15.5342C964.364 15.3573 963.877 15.311 963.408 15.4012C962.939 15.4914 962.508 15.7141 962.169 16.041C961.831 16.368 961.6 16.7846 961.507 17.2381C961.414 17.6917 961.462 18.1618 961.645 18.589C961.828 19.0162 962.138 19.3813 962.536 19.6382C962.934 19.8952 963.401 20.0323 963.88 20.0323C964.522 20.0323 965.137 19.7859 965.591 19.3475C966.044 18.909 966.299 18.3143 966.299 17.6943Z" fill="#242424"/>
<path d="M925.315 47.927C920.389 47.927 915.839 50.3676 913.099 54.4341L902.844 69.6223C901.637 71.4132 900.995 73.5194 901 75.6728V99.8782C900.993 101.5 901.534 103.078 902.536 104.36C903.539 105.642 904.945 106.556 906.531 106.955L916.097 109.356C916.785 112.639 918.591 115.589 921.214 117.709C923.837 119.829 927.115 120.991 930.5 121C937.329 121 943.03 116.32 944.675 110.039H979.013C980.657 116.32 986.358 121 993.188 121C1000.02 121 1005.72 116.32 1007.36 110.039H1011.62C1015.66 110.039 1019 106.729 1019 102.732V89.374C1019 86.1173 1017.89 82.9552 1015.87 80.39C1013.84 77.8249 1011.01 76.0038 1007.82 75.2161L987.885 70.1923L973.482 53.1809C972.104 51.5382 970.378 50.2159 968.427 49.3079C966.475 48.4 964.346 47.9285 962.19 47.927H925.315ZM925.315 55.2343H941.563V69.8489H911.602L919.209 58.5445V58.4312C919.877 57.437 920.785 56.6238 921.851 56.0655C922.917 55.5072 924.106 55.2215 925.312 55.2343H925.315ZM948.938 55.2343H962.19C964.377 55.2343 966.438 56.1915 967.836 57.8613L977.977 69.8489H948.938V55.2343ZM908.375 77.1562H985.352L1006.09 82.2932C1007.69 82.6845 1009.1 83.5964 1010.1 84.8813C1011.1 86.1663 1011.64 87.7492 1011.62 89.374V102.732H1007.36C1005.72 96.4511 1000.02 91.7707 993.188 91.7707C986.358 91.7707 980.657 96.4511 979.013 102.732H944.675C943.03 96.4511 937.329 91.7707 930.5 91.7707C923.962 91.7707 918.471 96.0528 916.558 101.932L908.375 99.8818V77.1562ZM930.5 99.078C934.619 99.078 937.875 102.304 937.875 106.385C937.875 110.466 934.619 113.693 930.5 113.693C926.381 113.693 923.125 110.466 923.125 106.385C923.125 102.304 926.381 99.078 930.5 99.078ZM993.188 99.078C997.306 99.078 1000.56 102.304 1000.56 106.385C1000.56 110.466 997.306 113.693 993.188 113.693C989.069 113.693 985.813 110.466 985.813 106.385C985.813 102.304 989.069 99.078 993.188 99.078Z" fill="#FFC41E"/>
<line x1="807" y1="63.5" x2="6.14391e-08" y2="63.5" stroke="#EEBF3A"/>
<line x1="807" y1="63.5" x2="6.14391e-08" y2="63.5" stroke="#EEBF3A"/>
<line x1="807" y1="63.5" x2="6.14391e-08" y2="63.5" stroke="#EEBF3A"/>
<line x1="1920" y1="63.5" x2="1113" y2="63.5" stroke="#EEBF3A"/>
<line x1="1920" y1="63.5" x2="1113" y2="63.5" stroke="#EEBF3A"/>
<line x1="1920" y1="63.5" x2="1113" y2="63.5" stroke="#EEBF3A"/>
</svg>
