<svg width="1920" height="126" viewBox="0 0 1920 126" fill="none" xmlns="http://www.w3.org/2000/svg">
<line x1="1920" y1="63.5" x2="1113" y2="63.5" stroke="#EEBF3A"/>
<line x1="1920" y1="63.5" x2="1113" y2="63.5" stroke="#EEBF3A"/>
<line x1="1920" y1="63.5" x2="1113" y2="63.5" stroke="#EEBF3A"/>
<line x1="807" y1="63.5" x2="6.14391e-08" y2="63.5" stroke="#EEBF3A"/>
<line x1="807" y1="63.5" x2="6.14391e-08" y2="63.5" stroke="#EEBF3A"/>
<line x1="807" y1="63.5" x2="6.14391e-08" y2="63.5" stroke="#EEBF3A"/>
<path fill-rule="evenodd" clip-rule="evenodd" d="M947.427 23.4059C947.427 21.4417 948.208 19.558 949.599 18.1691C950.989 16.7803 952.874 16 954.84 16H999.318C1001.28 16 1003.17 16.7803 1004.56 18.1691C1005.95 19.558 1006.73 21.4417 1006.73 23.4059V41.9207H947.427V23.4059ZM990.052 27.1089C989.56 27.1089 989.089 27.3039 988.741 27.6511C988.394 27.9984 988.198 28.4693 988.198 28.9603V32.6633C988.198 33.1543 988.394 33.6253 988.741 33.9725C989.089 34.3197 989.56 34.5148 990.052 34.5148H997.465C997.956 34.5148 998.427 34.3197 998.775 33.9725C999.122 33.6253 999.318 33.1543 999.318 32.6633V28.9603C999.318 28.4693 999.122 27.9984 998.775 27.6511C998.427 27.3039 997.956 27.1089 997.465 27.1089H990.052Z" fill="#FFC41E"/>
<path d="M947.427 49.3267V53.0296C947.427 54.9938 948.208 56.8775 949.598 58.2664C950.989 59.6553 952.874 60.4355 954.84 60.4355H999.317C1001.28 60.4355 1003.17 59.6553 1004.56 58.2664C1005.95 56.8775 1006.73 54.9938 1006.73 53.0296V49.3267H947.427Z" fill="#FFC41E"/>
<mask id="path-5-inside-1" fill="white">
<rect x="896" y="50.7286" width="20.1631" height="58.2713" rx="2"/>
</mask>
<rect x="896" y="50.7286" width="20.1631" height="58.2713" rx="2" stroke="#242424" stroke-width="10" mask="url(#path-5-inside-1)"/>
<path d="M922.52 60.6232V99.2725C931.415 99.2725 934.152 101.08 943.276 101.651C974.359 111.43 980.918 108.055 996.047 99.2725C1001.64 96.0235 1010.74 88.9827 1017.04 83.8128C1025.49 75.4406 1024.64 73.2288 1022.74 71.3261C1014.44 63.0016 1005.54 82.6236 988.939 83.8128C976.154 84.7285 954.543 82.6236 949.206 82.6236" stroke="#242424" stroke-width="5"/>
<path d="M920.558 60.6544C925.767 60.2826 936.221 58.7453 940.904 60.6233C946.834 63.0017 949.297 68.2104 952.67 69.341C960.366 71.9207 972.947 71.4901 977.672 71.9207C984.195 72.5153 994.87 72.5153 994.277 81.4344C993.902 87.0628 962.253 82.6236 949.799 82.6236" stroke="#242424" stroke-width="5"/>
</svg>
