<svg width="1920" height="145" viewBox="0 0 1920 145" fill="none" xmlns="http://www.w3.org/2000/svg">
<path fill-rule="evenodd" clip-rule="evenodd" d="M959.966 5.49226C960.828 4.41391 962.401 4.23875 963.48 5.10103L1034.48 61.8717C1035.55 62.734 1035.73 64.3072 1034.87 65.3856C1034 66.4639 1032.43 66.6391 1031.35 65.7768L960.357 9.00608C959.279 8.14381 959.104 6.57061 959.966 5.49226Z" fill="#242424"/>
<path fill-rule="evenodd" clip-rule="evenodd" d="M963.871 5.49226C964.734 6.57061 964.558 8.14381 963.48 9.00608L892.484 65.7768C891.405 66.6391 889.832 66.4639 888.97 65.3856C888.108 64.3072 888.283 62.734 889.361 61.8717L960.357 5.10103C961.436 4.23875 963.009 4.41391 963.871 5.49226Z" fill="#242424"/>
<path fill-rule="evenodd" clip-rule="evenodd" d="M912.221 47.1316C913.602 47.1316 914.721 48.2509 914.721 49.6316V141.884C914.721 143.265 913.602 144.384 912.221 144.384C910.84 144.384 909.721 143.265 909.721 141.884V49.6316C909.721 48.2509 910.84 47.1316 912.221 47.1316Z" fill="#242424"/>
<path fill-rule="evenodd" clip-rule="evenodd" d="M1011.62 47.1316C1013 47.1316 1014.12 48.2509 1014.12 49.6316V141.884C1014.12 143.265 1013 144.384 1011.62 144.384C1010.24 144.384 1009.12 143.265 1009.12 141.884V49.6316C1009.12 48.2509 1010.24 47.1316 1011.62 47.1316Z" fill="#242424"/>
<path fill-rule="evenodd" clip-rule="evenodd" d="M909.721 141.884C909.721 140.503 910.84 139.384 912.221 139.384H1011.62C1013 139.384 1014.12 140.503 1014.12 141.884C1014.12 143.265 1013 144.384 1011.62 144.384H912.221C910.84 144.384 909.721 143.265 909.721 141.884Z" fill="#242424"/>
<path d="M962.429 81.1502L980.949 87.6139V113.982C980.949 114.494 980.741 114.985 980.37 115.347C979.999 115.709 979.497 115.913 978.973 115.913H971.068C970.544 115.913 970.041 115.709 969.67 115.347C969.3 114.985 969.092 114.494 969.092 113.982V100.463H949.33V113.982C949.33 114.494 949.122 114.985 948.751 115.347C948.38 115.709 947.878 115.913 947.354 115.913H939.449C938.925 115.913 938.422 115.709 938.051 115.347C937.681 114.985 937.473 114.494 937.473 113.982V88.1619C932.883 86.5626 929.568 82.3162 929.568 77.2877C929.568 76.2633 929.984 75.2809 930.725 74.5565C931.467 73.8322 932.472 73.4252 933.52 73.4252C934.568 73.4252 935.574 73.8322 936.315 74.5565C937.056 75.2809 937.473 76.2633 937.473 77.2877C937.475 78.3115 937.892 79.2929 938.632 80.0168C939.373 80.7408 940.377 81.1483 941.425 81.1502H962.429ZM992.806 67.6314V71.4939C992.806 73.5428 991.973 75.5077 990.491 76.9564C989.008 78.4051 986.998 79.219 984.901 79.219H980.949V83.5136L965.139 77.9963V59.9064C965.139 58.1864 967.266 57.3245 968.512 58.5412L971.882 61.8376H978.506C979.853 61.8376 981.439 62.7936 982.041 63.9729L982.925 65.7002H990.83C991.354 65.7002 991.856 65.9036 992.227 66.2658C992.598 66.628 992.806 67.1192 992.806 67.6314ZM978.973 67.6314C978.973 67.2495 978.857 66.8761 978.639 66.5585C978.422 66.2409 978.114 65.9934 977.753 65.8472C977.391 65.701 976.994 65.6628 976.611 65.7373C976.227 65.8118 975.875 65.9957 975.599 66.2658C975.323 66.5359 975.134 66.88 975.058 67.2547C974.982 67.6293 975.021 68.0176 975.171 68.3705C975.32 68.7234 975.573 69.025 975.898 69.2372C976.223 69.4494 976.605 69.5627 976.996 69.5627C977.52 69.5627 978.023 69.3592 978.394 68.997C978.764 68.6349 978.973 68.1436 978.973 67.6314Z" fill="#242424"/>
<path d="M948.708 11.8739C947.727 9.55032 946.312 7.44471 944.543 5.67495C942.772 3.8999 940.685 2.4893 938.394 1.51985C936.019 0.510592 933.471 -0.00600271 930.898 5.26228e-05C927.29 5.26228e-05 923.769 1.01075 920.709 2.91985C919.977 3.37654 919.281 3.87815 918.623 4.42467C917.964 3.87815 917.268 3.37654 916.536 2.91985C913.477 1.01075 909.956 5.26228e-05 906.347 5.26228e-05C903.748 5.26228e-05 901.23 0.509146 898.851 1.51985C896.553 2.49311 894.481 3.89312 892.702 5.67495C890.931 7.44272 889.516 9.54882 888.537 11.8739C887.52 14.2921 887 16.86 887 19.5028C887 21.9959 887.498 24.5938 888.486 27.2365C889.313 29.4451 890.499 31.736 892.014 34.0494C894.415 37.7104 897.717 41.5286 901.816 45.3992C908.609 51.8153 915.336 56.2474 915.621 56.4271L917.356 57.565C918.125 58.0667 919.113 58.0667 919.882 57.565L921.617 56.4271C921.902 56.2399 928.622 51.8153 935.422 45.3992C939.521 41.5286 942.823 37.7104 945.224 34.0494C946.739 31.736 947.932 29.4451 948.752 27.2365C949.74 24.5938 950.238 21.9959 950.238 19.5028C950.245 16.86 949.725 14.2921 948.708 11.8739Z" fill="#FFC41E"/>
<line x1="807" y1="71.5" y2="71.5" stroke="#EEBF3A"/>
<line x1="807" y1="71.5" y2="71.5" stroke="#EEBF3A"/>
<line x1="807" y1="71.5" y2="71.5" stroke="#EEBF3A"/>
<line x1="1920" y1="71.5" x2="1113" y2="71.5001" stroke="#EEBF3A"/>
<line x1="1920" y1="71.5" x2="1113" y2="71.5001" stroke="#EEBF3A"/>
<line x1="1920" y1="71.5" x2="1113" y2="71.5001" stroke="#EEBF3A"/>
</svg>
