<svg width="1920" height="126" viewBox="0 0 1920 126" fill="none" xmlns="http://www.w3.org/2000/svg">
<path d="M921 76.9351V38.1564C921 36.2865 921.733 34.4931 923.037 33.1709C924.341 31.8486 926.109 31.1058 927.953 31.1058V31.1058C929.798 31.1058 931.566 31.8486 932.87 33.1709C934.174 34.4931 934.907 36.2865 934.907 38.1564V62.8338" stroke="black" stroke-width="4" stroke-linecap="round" stroke-linejoin="round"/>
<path d="M934.907 63.0657V24.287C934.907 22.417 935.671 20.6237 937.032 19.3014C938.393 17.9792 940.238 17.2363 942.163 17.2363C944.087 17.2363 945.932 17.9792 947.293 19.3014C948.654 20.6237 949.418 22.417 949.418 24.287V59.5404" stroke="black" stroke-width="4" stroke-linecap="round" stroke-linejoin="round"/>
<path d="M963.326 59.629V27.8646C963.326 26.0054 964.09 24.2223 965.451 22.9077C966.812 21.5931 968.657 20.8545 970.582 20.8545V20.8545C972.506 20.8545 974.352 21.5931 975.712 22.9077C977.073 24.2223 977.838 26.0054 977.838 27.8646V76.9352" stroke="black" stroke-width="4" stroke-linecap="round" stroke-linejoin="round"/>
<path d="M949.418 59.4475V17.0639C949.418 15.1905 950.151 13.3937 951.455 12.069C952.759 10.7442 954.528 10 956.372 10C958.216 10 959.985 10.7442 961.289 12.069C962.593 13.3937 963.325 15.1905 963.325 17.0639V59.4475" stroke="black" stroke-width="4" stroke-linecap="round" stroke-linejoin="round"/>
<path d="M921 77.0959C921 103.134 935.18 116.132 954.678 116.132C974.176 116.132 982.088 107.349 986.583 96.6137L998.262 64.6755C999.738 60.6722 999.069 56.9593 995.632 55.0053C992.193 53.0491 987.676 54.0561 985.815 57.5959L977.721 77.0959" stroke="black" stroke-width="4" stroke-linecap="round" stroke-linejoin="round"/>
<path fill-rule="evenodd" clip-rule="evenodd" d="M958.524 80.5056C958.714 80.5338 958.905 80.548 959.097 80.548C960.502 80.548 961.868 79.8062 962.945 78.4587C963.903 77.2593 964.569 75.6447 964.823 73.9101C965.422 69.7838 963.596 66.2189 960.667 65.7875C960.478 65.7592 960.286 65.7451 960.094 65.7451C958.691 65.7469 957.322 66.4878 956.247 67.8326C955.288 69.0311 954.618 70.6475 954.369 72.3848C953.77 76.5111 955.595 80.076 958.524 80.5056ZM947.608 80.5481C946.203 80.5481 944.837 79.8063 943.76 78.4588C942.8 77.2594 942.131 75.6448 941.881 73.912C941.282 69.7839 943.107 66.219 946.037 65.7894C946.226 65.7611 946.418 65.747 946.609 65.747C948.013 65.747 949.381 66.4879 950.456 67.8327C951.416 69.0312 952.085 70.6476 952.336 72.3831C952.935 76.5112 951.11 80.0761 948.18 80.5057C947.991 80.5339 947.799 80.5481 947.608 80.5481ZM974.563 77.9082C974.061 76.7178 973.227 75.8595 972.15 75.4272L972.135 75.4218C971.645 75.2303 971.123 75.1324 970.597 75.133H970.539C968.074 75.17 965.557 77.2593 964.278 80.3324C963.339 82.5796 963.231 84.9965 963.99 86.7979C964.491 87.9893 965.327 88.8475 966.409 89.2798L966.42 89.2844C966.911 89.4757 967.432 89.5736 967.959 89.5732C970.447 89.5732 972.99 87.4838 974.294 84.3702C975.22 82.1256 975.322 79.7105 974.563 77.9082ZM964.714 91.1626C963.292 90.3106 961.948 89.5047 961.07 88.057C958.649 84.0499 957.186 81.6312 953.352 81.6312C949.518 81.6312 948.052 84.0499 945.624 88.057C944.746 89.505 943.401 90.3116 941.977 91.1662L941.977 91.1662L941.972 91.1689L941.972 91.169C940.337 92.1491 938.647 93.1617 937.918 95.1544C937.634 95.8727 937.492 96.6387 937.497 97.4107C937.497 100.655 940.031 103.295 943.144 103.295C944.75 103.295 946.46 102.74 948.269 102.152C950.008 101.587 951.806 101.004 953.361 101.004C954.916 101.004 956.709 101.587 958.442 102.152L958.491 102.168L958.491 102.168C960.278 102.746 961.963 103.291 963.56 103.291C966.668 103.291 969.198 100.652 969.198 97.407C969.2 96.6345 969.054 95.8686 968.768 95.1508C968.039 93.1565 966.349 92.143 964.714 91.1631L964.714 91.1626ZM940.296 89.2798L940.284 89.2844C939.794 89.4756 939.273 89.5736 938.748 89.5732C936.262 89.5732 933.72 87.4829 932.423 84.3729C931.486 82.1257 931.38 79.7114 932.138 77.9064C932.638 76.716 933.474 75.855 934.551 75.4263L934.563 75.4218C935.053 75.2302 935.575 75.1322 936.102 75.133C938.588 75.133 941.13 77.2232 942.426 80.3333C943.363 82.5805 943.47 84.9947 942.712 86.7997C942.211 87.9902 941.376 88.8475 940.296 89.2798Z" fill="#FFC41E"/>
<line x1="807" y1="63.5" x2="4.37113e-08" y2="63.5001" stroke="#EEBF3A"/>
<line x1="807" y1="63.5" x2="4.37113e-08" y2="63.5001" stroke="#EEBF3A"/>
<line x1="807" y1="63.5" x2="4.37113e-08" y2="63.5001" stroke="#EEBF3A"/>
<line x1="1920" y1="63.5" x2="1113" y2="63.5001" stroke="#EEBF3A"/>
<line x1="1920" y1="63.5" x2="1113" y2="63.5001" stroke="#EEBF3A"/>
<line x1="1920" y1="63.5" x2="1113" y2="63.5001" stroke="#EEBF3A"/>
</svg>
